<svg width="1715" height="424" viewBox="0 0 1715 424" fill="none" xmlns="http://www.w3.org/2000/svg">
<path d="M136.673 18.4243C190.838 10.7004 255.37 21.7084 301.476 36.2964C332.09 45.9831 349.056 78.6539 339.37 109.269C329.683 139.883 297.012 156.848 266.397 147.161C229.813 135.585 183.876 129.154 153.089 133.544C150.728 133.88 148.648 134.253 146.823 134.639C147.573 135.153 148.354 135.676 149.168 136.203C163.179 145.266 183.674 153.958 208.841 155.852C278.115 161.066 334.384 191.433 350.695 249.558C365.258 301.453 339.741 353.385 300.539 378.246C242.308 415.172 144.655 431.352 31.5277 373.075C2.98203 358.37 -8.238 323.307 6.46732 294.762C21.1728 266.217 56.2334 254.998 84.7787 269.703C161.978 309.473 214.928 294.137 236.978 280.834C232.559 278.115 221.751 273.437 200.112 271.808C153.183 268.275 114.225 252.091 86.0108 233.84C71.9476 224.743 59.7811 214.637 50.2098 204.407C45.4409 199.31 40.7581 193.586 36.7362 187.355C33.1876 181.857 27.9601 172.639 25.4845 160.881C17.4686 122.806 24.7937 84.9684 52.6172 56.6819C77.0861 31.8059 109.959 22.2338 136.673 18.4243Z" fill="#F2A6C0"/>
<path d="M457.207 31.8916C609.926 -17.7208 701.079 37.0598 727.565 70.6527C738.225 81.955 685.897 187.905 651.012 169.494C616.127 151.082 560.893 158.834 542.481 182.091C524.07 205.348 526.008 239.264 573.49 258.644C611.476 274.149 658.442 265.104 677.176 258.644C705.278 278.994 713.999 310.972 727.565 341.98C738.418 366.788 704.309 387.848 685.897 395.277C551.009 445.666 444.933 393.662 408.755 361.361C347.918 296.896 325.632 74.6352 457.207 31.8916Z" fill="#F2A6C0"/>
<path fill-rule="evenodd" clip-rule="evenodd" d="M923.493 12.0029C1031.06 12.0031 1118.27 101.376 1118.27 211.622C1118.27 321.869 1031.06 411.242 923.493 411.242C815.922 411.242 728.719 321.869 728.719 211.622C728.719 101.375 815.922 12.0029 923.493 12.0029ZM922.616 154.851C898.873 154.851 879.626 179.858 879.626 210.707C879.626 241.556 898.873 266.563 922.616 266.563C946.359 266.563 965.607 241.556 965.607 210.707C965.607 179.858 946.359 154.851 922.616 154.851Z" fill="#F2A6C0"/>
<path d="M1264.59 361.219C1264.39 393.864 1237.76 420.166 1205.12 419.968C1172.47 419.769 1146.17 393.145 1146.37 360.5L1264.59 361.219ZM1220.04 5.38713C1250.96 -4.24273 1283.77 0.947529 1305.89 6.21611C1330.12 11.9854 1353.06 20.815 1369.21 27.7334C1377.47 31.2704 1384.36 34.4873 1389.27 36.8597C1391.73 38.0492 1393.71 39.0359 1395.14 39.7554C1395.85 40.1155 1396.43 40.4097 1396.85 40.6298C1397.07 40.7395 1397.24 40.8302 1397.38 40.9024C1397.45 40.9385 1397.51 40.9706 1397.56 40.997C1397.59 41.01 1397.61 41.0224 1397.63 41.0329C1397.64 41.0382 1397.65 41.0455 1397.66 41.0481C1397.67 41.0569 1397.5 41.3979 1372.33 89.3707L1397.68 41.0613C1426.59 56.2326 1437.73 91.9651 1422.55 120.872C1407.39 149.771 1371.67 160.906 1342.76 145.75V145.752L1342.81 145.775C1342.82 145.781 1342.83 145.785 1342.82 145.783C1342.81 145.777 1342.76 145.754 1342.69 145.712C1342.53 145.63 1342.23 145.478 1341.81 145.264C1340.96 144.835 1339.61 144.16 1337.82 143.297C1334.24 141.566 1329 139.117 1322.66 136.403C1309.63 130.819 1293.56 124.807 1278.5 121.22C1274.93 120.37 1271.82 119.759 1269.12 119.314C1268.22 141.198 1267.49 167.37 1266.89 194.364H1321.76C1354.41 194.364 1380.87 220.829 1380.87 253.475C1380.87 286.121 1354.41 312.586 1321.76 312.586H1265.02C1264.94 319.872 1264.88 326.558 1264.82 332.489C1264.74 341.389 1264.68 348.584 1264.64 353.548C1264.62 356.03 1264.61 357.954 1264.6 359.254C1264.59 359.904 1264.59 360.399 1264.59 360.729C1264.59 360.894 1264.59 361.018 1264.59 361.1C1264.59 361.14 1264.59 361.171 1264.59 361.19C1264.59 361.2 1264.59 361.209 1264.59 361.213V361.217L1205.48 360.859C1147.74 360.508 1146.4 360.498 1146.37 360.496V360.361C1146.37 360.273 1146.37 360.142 1146.37 359.97C1146.37 359.626 1146.38 359.118 1146.38 358.454C1146.39 357.125 1146.4 355.17 1146.42 352.657C1146.46 347.629 1146.52 340.362 1146.6 331.381C1146.77 313.425 1147.04 288.596 1147.45 261.11C1147.47 259.595 1147.49 258.07 1147.52 256.537C1147.47 255.523 1147.44 254.502 1147.44 253.475C1147.44 251.825 1147.51 250.191 1147.64 248.575C1148.46 196.607 1149.76 136.951 1151.8 96.858C1152.81 76.949 1158.44 56.4451 1171.79 38.7656C1185.27 20.9143 1203.04 10.6836 1220.04 5.38713Z" fill="#F2A6C0"/>
<path d="M1549.48 364.508C1549.28 397.153 1522.66 423.455 1490.01 423.257C1457.37 423.058 1431.07 396.434 1431.26 363.789L1549.48 364.508ZM1504.94 8.6762C1535.85 -0.953667 1568.66 4.23659 1590.79 9.50517C1615.01 15.2745 1637.96 24.1041 1654.11 31.0225C1662.37 34.5595 1669.26 37.7764 1674.17 40.1488C1676.63 41.3382 1678.61 42.325 1680.03 43.0445C1680.75 43.4045 1681.32 43.6988 1681.75 43.9189C1681.96 44.0285 1682.14 44.1193 1682.28 44.1914C1682.35 44.2276 1682.41 44.2597 1682.46 44.286C1682.48 44.2991 1682.51 44.3114 1682.53 44.322C1682.54 44.3273 1682.55 44.3345 1682.56 44.3372C1682.57 44.346 1682.4 44.687 1657.22 92.6598L1682.58 44.3504C1711.49 59.5216 1722.62 95.2542 1707.45 124.161C1692.28 153.06 1656.56 164.195 1627.66 149.039V149.041L1627.71 149.064C1627.72 149.07 1627.72 149.074 1627.72 149.072C1627.71 149.066 1627.66 149.043 1627.58 149.002C1627.42 148.919 1627.13 148.767 1626.7 148.553C1625.86 148.124 1624.5 147.449 1622.72 146.587C1619.14 144.855 1613.9 142.406 1607.56 139.692C1594.52 134.108 1578.46 128.096 1563.4 124.509C1559.83 123.659 1556.71 123.048 1554.02 122.603C1553.12 144.487 1552.39 170.659 1551.79 197.654H1606.66C1639.3 197.654 1665.77 224.118 1665.77 256.764C1665.77 289.41 1639.3 315.875 1606.66 315.875H1549.92C1549.84 323.161 1549.77 329.847 1549.72 335.778C1549.63 344.678 1549.57 351.873 1549.54 356.837C1549.52 359.319 1549.5 361.243 1549.5 362.543C1549.49 363.193 1549.49 363.688 1549.49 364.018C1549.49 364.183 1549.48 364.307 1549.48 364.389C1549.48 364.429 1549.48 364.46 1549.48 364.479C1549.48 364.489 1549.48 364.498 1549.48 364.502V364.506L1490.37 364.148C1432.64 363.797 1431.3 363.787 1431.26 363.785V363.651C1431.27 363.562 1431.27 363.431 1431.27 363.259C1431.27 362.915 1431.27 362.407 1431.28 361.743C1431.29 360.414 1431.3 358.459 1431.32 355.946C1431.36 350.918 1431.42 343.651 1431.5 334.671C1431.67 316.714 1431.94 291.885 1432.34 264.399C1432.36 262.884 1432.39 261.359 1432.41 259.826C1432.36 258.812 1432.33 257.791 1432.33 256.764C1432.33 255.114 1432.41 253.48 1432.54 251.864C1433.36 199.896 1434.66 140.24 1436.7 100.147C1437.71 80.238 1443.34 59.7341 1456.68 42.0546C1470.16 24.2034 1487.93 13.9726 1504.94 8.6762Z" fill="#F2A6C0"/>
</svg>
